<?xml version="1.0" standalone="no"?>
<svg version="1.0" xmlns="http://www.w3.org/2000/svg"
 width="24px" height="24px" viewBox="0 0 512.000000 512.000000"
 preserveAspectRatio="xMidYMid meet">
<g transform="translate(0.000000,512.000000) scale(0.100000,-0.100000)"
fill="#000000" stroke="none">
<path d="M1351 4626 c-8 -9 -11 -68 -9 -187 l3 -174 615 0 615 0 3 179 c2 137
-1 181 -10 188 -7 4 -281 8 -609 8 -496 0 -598 -2 -608 -14z"/>
<path d="M654 4431 c-50 -23 -91 -74 -110 -137 -22 -73 -21 -2967 1 -3041 17
-56 83 -126 132 -140 15 -4 600 -8 1299 -8 l1270 0 41 27 c26 17 49 44 64 75
l23 48 2 528 c1 290 -1 527 -5 527 -3 0 -103 -97 -221 -215 -118 -118 -226
-219 -240 -224 -44 -18 -458 -61 -485 -51 -13 5 -31 20 -41 34 -15 24 -15 39
10 250 14 124 26 231 26 238 0 7 214 226 475 488 l474 475 2 497 c1 494 1 498
-21 543 -12 25 -38 58 -58 73 l-35 27 -247 3 -247 3 -5 -108 c-5 -125 -25
-175 -87 -217 -66 -46 -90 -47 -742 -44 l-616 3 -48 30 c-36 22 -57 45 -77 84
-25 48 -28 63 -28 152 l0 99 -232 0 c-206 0 -238 -3 -274 -19z m2191 -1021
c33 -12 59 -69 46 -102 -5 -13 -19 -32 -31 -43 -22 -20 -38 -20 -884 -23 -599
-2 -872 0 -898 8 -25 7 -43 20 -53 40 -22 43 -19 68 14 101 l29 29 876 0 c555
0 884 -4 901 -10z m-680 -715 c35 -34 34 -88 -1 -120 l-27 -25 -532 0 c-518 0
-533 1 -558 20 -33 27 -43 70 -23 108 9 17 21 32 28 35 7 3 255 6 551 6 l538
1 24 -25z m-141 -687 c15 -13 29 -37 32 -54 5 -26 0 -38 -24 -65 l-30 -34
-441 -3 c-483 -3 -511 -1 -536 48 -22 43 -19 68 14 101 l29 29 466 0 465 0 25
-22z"/>
<path d="M3157 2842 l-568 -568 -15 -133 c-8 -73 -14 -135 -12 -137 2 -2 65 3
139 12 l134 15 568 567 567 567 -123 123 -122 122 -568 -568z"/>
</g>
</svg>
