<?xml version="1.0" standalone="no"?>
<svg version="1.0" xmlns="http://www.w3.org/2000/svg"
 width="24px" height="24px" viewBox="0 0 900.000000 900.000000"
 preserveAspectRatio="xMidYMid meet">
<g transform="translate(0.000000,900.000000) scale(0.100000,-0.100000)"
fill="#000000" stroke="none">
<path d="M2472 7920 c-34 -9 -86 -32 -114 -51 -54 -36 -116 -111 -117 -142 -1
-10 -6 -28 -12 -39 -6 -11 -12 -64 -13 -117 l-1 -96 -405 2 c-490 3 -621 -5
-678 -41 -81 -51 -131 -119 -163 -221 -10 -31 -13 -680 -15 -2985 -3 -3153 -5
-2989 44 -3090 18 -38 100 -130 116 -130 5 0 17 -6 25 -13 51 -43 -22 -41
2586 -43 2783 -2 2544 -9 2634 72 48 44 67 76 95 159 15 46 16 149 16 1110
l-1 1060 729 725 c400 399 744 745 763 770 33 42 59 105 59 145 0 9 -7 42 -16
73 -16 53 -29 68 -314 351 -163 163 -312 305 -330 315 -26 15 -53 20 -110 20
-64 0 -81 -4 -115 -26 -37 -24 -531 -517 -617 -616 -54 -62 -69 -57 -60 21 4
34 7 514 7 1067 0 1066 1 1034 -47 1137 -10 23 -39 59 -62 80 -75 66 -107 69
-646 63 -256 -3 -469 -2 -474 2 -5 4 -9 46 -10 95 -1 48 -6 106 -11 128 -11
54 -69 129 -130 169 -103 67 -42 65 -1360 63 -1064 0 -1197 -2 -1253 -17z
m2538 -210 l49 -50 0 -272 c0 -299 -1 -306 -63 -353 l-33 -25 -1242 0 -1242 0
-27 21 c-59 45 -61 59 -62 351 0 249 1 270 20 300 11 18 34 43 52 55 l33 22
1233 0 1233 1 49 -50z m-2792 -502 c-4 -193 55 -289 225 -362 34 -14 154 -16
1270 -16 1141 0 1236 2 1287 18 72 22 138 71 176 130 38 57 44 86 51 225 l5
107 499 0 499 0 30 -42 30 -41 0 -1167 0 -1167 -779 -779 -779 -779 -7 -80
c-4 -44 -11 -98 -16 -120 -5 -22 -9 -65 -9 -95 0 -30 -7 -95 -15 -145 -8 -49
-15 -112 -15 -140 0 -27 -7 -81 -15 -120 -8 -38 -15 -100 -17 -137 -2 -59 1
-70 22 -93 24 -26 26 -26 125 -20 55 4 134 13 175 21 41 8 100 14 131 14 31 0
81 5 110 10 30 6 101 15 159 20 58 5 135 14 172 20 l67 12 311 311 c170 172
320 327 333 344 14 21 30 33 46 33 21 0 22 -3 16 -27 -5 -16 -10 -457 -12
-981 l-4 -954 -25 -39 -24 -39 -2501 0 -2500 0 -35 26 c-18 14 -43 41 -54 59
-20 32 -20 42 -20 2994 0 2931 0 2962 20 2999 24 46 38 63 70 84 23 15 72 17
513 17 l488 1 -3 -102z m5061 -1627 c8 -5 140 -134 293 -287 184 -184 278
-285 278 -299 0 -14 -374 -394 -1173 -1193 l-1173 -1172 -66 0 c-36 0 -102 -7
-145 -15 -43 -8 -101 -15 -129 -15 -29 0 -87 -6 -130 -14 -44 -8 -109 -17
-146 -21 l-68 -7 0 46 c0 24 5 57 10 72 6 15 15 80 20 146 5 65 11 122 15 127
3 6 10 72 16 147 6 76 13 144 17 151 19 33 2337 2343 2351 2343 9 0 22 -4 30
-9z"/>
<path d="M1962 5406 c-27 -14 -52 -49 -52 -75 0 -13 9 -39 21 -57 l21 -34
1757 0 1758 0 21 23 c33 35 30 100 -5 126 -28 20 -45 20 -1766 23 -988 2
-1746 -1 -1755 -6z"/>
<path d="M2984 4020 l-1032 -5 -21 -25 c-26 -32 -26 -78 0 -110 l21 -25 1048
-3 1047 -2 26 21 c53 41 28 138 -38 150 -11 2 -484 2 -1051 -1z"/>
<path d="M2847 2630 l-897 -5 -20 -30 c-11 -16 -20 -38 -20 -48 0 -23 28 -65
51 -78 27 -14 1802 -13 1829 1 63 34 49 150 -20 161 -14 2 -429 2 -923 -1z"/>
</g>
</svg>
