<?xml version="1.0" standalone="no"?>
<svg version="1.0" xmlns="http://www.w3.org/2000/svg"
 width="24px" height="24px" viewBox="0 0 300.000000 300.000000"
 preserveAspectRatio="xMidYMid meet">
<g transform="translate(0.000000,300.000000) scale(0.100000,-0.100000)"
fill="#6e6e6e" stroke="none">
<path d="M199 2582 c-136 -134 -200 -203 -198 -215 3 -12 49 27 169 143 91 88
184 178 207 200 l43 40 660 0 660 0 0 -309 c0 -357 -4 -341 95 -366 217 -55
386 -226 426 -433 7 -37 10 -102 7 -160 -7 -115 -34 -197 -96 -289 -23 -34
-42 -67 -42 -73 0 -16 206 -220 222 -220 7 0 30 16 52 36 21 19 42 34 47 32 5
-2 120 -113 254 -248 282 -282 293 -297 255 -374 -36 -76 -102 -107 -178 -86
-33 8 -84 54 -292 261 l-252 251 31 31 c63 60 64 57 -55 178 -59 60 -113 109
-119 109 -6 0 -27 -12 -46 -26 -228 -171 -551 -149 -755 51 -117 115 -168 239
-168 405 0 153 38 259 134 373 88 106 266 195 392 197 67 0 68 7 68 321 0 255
-1 277 -18 292 -17 15 -75 17 -629 17 -578 0 -611 -1 -626 -18 -14 -16 -17
-44 -17 -185 l0 -167 -168 0 c-159 0 -170 -1 -188 -21 -18 -20 -19 -51 -19
-1004 0 -817 2 -985 14 -998 12 -16 82 -17 816 -17 764 0 803 1 818 18 15 16
17 46 17 215 0 125 4 197 10 197 6 0 10 -82 10 -225 l0 -225 -870 0 c-764 0
-870 -2 -870 -15 0 -13 109 -15 885 -17 l885 -3 0 258 0 257 -40 0 -40 0 0
-215 0 -215 -800 0 -800 0 0 990 0 990 185 0 185 0 0 185 0 185 615 0 615 0
-2 -282 -3 -283 -65 -7 c-135 -14 -260 -78 -358 -182 -114 -122 -167 -254
-166 -416 0 -167 56 -302 174 -420 125 -126 256 -180 433 -180 134 0 272 45
356 116 l33 27 99 -99 99 -98 -46 -47 -46 -47 267 -265 c271 -272 290 -287
363 -287 29 0 91 26 115 48 11 9 26 30 34 45 17 34 19 127 3 159 -7 13 -130
141 -273 285 l-262 263 -48 -48 -48 -47 -94 97 c-52 53 -95 100 -95 103 0 3
13 23 30 43 66 84 110 221 110 349 0 110 -14 172 -62 271 -75 158 -242 290
-408 323 l-60 12 0 328 0 329 -685 0 -684 0 -202 -198z"/>
<path d="M247 2542 c-64 -64 -117 -125 -117 -134 0 -10 9 -22 19 -28 28 -14
224 -13 239 2 17 17 17 249 0 266 -7 7 -15 12 -18 12 -3 0 -58 -53 -123 -118z
m131 -24 l-3 -113 -112 -3 c-62 -1 -113 -1 -113 0 0 7 215 225 223 227 4 0 6
-50 5 -111z"/>
<path d="M380 2080 l0 -40 325 0 325 0 0 40 0 40 -325 0 -325 0 0 -40z m620 0
c0 -6 -105 -10 -295 -10 -190 0 -295 4 -295 10 0 6 105 10 295 10 190 0 295
-4 295 -10z"/>
<path d="M1566 2055 c-140 -36 -294 -160 -354 -286 -92 -194 -79 -383 39 -560
100 -149 270 -239 450 -239 229 0 436 151 513 374 35 99 35 255 1 350 -57 161
-185 292 -340 347 -79 28 -227 34 -309 14z m236 -26 c72 -15 183 -70 239 -118
59 -51 116 -137 148 -221 33 -91 35 -236 2 -330 -41 -120 -130 -229 -235 -290
-65 -36 -190 -70 -260 -70 -233 2 -447 174 -501 402 -86 365 242 703 607 627z"/>
<path d="M1596 1740 c-66 -17 -158 -67 -233 -127 l-73 -57 32 -33 31 -32 55
50 c31 27 59 49 62 49 4 0 5 -24 2 -54 -8 -100 39 -179 133 -222 68 -32 127
-31 196 4 89 45 144 153 124 244 l-7 31 46 -33 c25 -18 53 -41 62 -51 15 -17
18 -17 48 12 l31 30 -55 50 c-31 28 -95 70 -148 96 -86 42 -100 46 -180 49
-48 2 -104 -1 -126 -6z m251 -52 c60 -22 204 -115 211 -135 7 -23 -19 -14 -69
23 -71 52 -82 46 -91 -50 -9 -101 -37 -147 -111 -182 -29 -13 -63 -24 -77 -24
-42 0 -103 21 -138 46 -46 35 -66 79 -72 158 -8 105 -21 107 -136 21 -7 -5
-17 -6 -21 -1 -23 23 184 147 277 166 62 12 160 3 227 -22z"/>
<path d="M1647 1685 c-162 -57 -153 -286 12 -336 100 -30 211 64 211 180 0 42
-40 111 -79 136 -47 30 -97 37 -144 20z m125 -41 c64 -33 89 -137 46 -200 -30
-44 -68 -64 -120 -64 -96 0 -160 84 -136 179 12 47 42 78 95 96 40 14 70 11
115 -11z"/>
<path d="M380 1895 l0 -45 230 0 230 0 0 45 0 45 -230 0 -230 0 0 -45z m430
-5 c0 -6 -73 -10 -200 -10 -127 0 -200 4 -200 10 0 6 73 10 200 10 127 0 200
-4 200 -10z"/>
<path d="M380 1613 l0 -43 325 0 325 0 0 43 0 42 -325 0 -325 0 0 -42z m620
-3 c0 -6 -105 -10 -295 -10 -190 0 -295 4 -295 10 0 6 105 10 295 10 190 0
295 -4 295 -10z"/>
<path d="M380 1425 l0 -45 230 0 230 0 0 45 0 45 -230 0 -230 0 0 -45z m430
-5 c0 -6 -73 -10 -200 -10 -127 0 -200 4 -200 10 0 6 73 10 200 10 127 0 200
-4 200 -10z"/>
<path d="M380 1145 l0 -45 325 0 325 0 0 45 0 45 -325 0 -325 0 0 -45z m620
-5 c0 -6 -105 -10 -295 -10 -190 0 -295 4 -295 10 0 6 105 10 295 10 190 0
295 -4 295 -10z"/>
<path d="M380 955 l0 -45 185 0 185 0 0 45 0 45 -185 0 -185 0 0 -45z m340 -5
c0 -6 -58 -10 -155 -10 -97 0 -155 4 -155 10 0 6 58 10 155 10 97 0 155 -4
155 -10z"/>
<path d="M2367 852 c-37 -37 -67 -74 -67 -83 0 -23 470 -485 502 -493 89 -21
172 98 122 174 -30 45 -459 470 -474 470 -9 0 -46 -30 -83 -68z m543 -455 c0
-52 -35 -87 -87 -87 -35 0 -49 12 -268 230 l-231 231 60 62 61 63 233 -231
c221 -219 232 -233 232 -268z"/>
</g>
</svg>
