<?xml version="1.0" standalone="no"?>
<svg version="1.0" xmlns="http://www.w3.org/2000/svg"
 width="24px" height="24px" viewBox="0 0 900.000000 900.000000"
 preserveAspectRatio="xMidYMid meet">
<g transform="translate(0.000000,900.000000) scale(0.100000,-0.100000)"
fill="#000000" stroke="none">
<path d="M604 7748 c-322 -321 -590 -584 -595 -586 -5 -2 -9 -1265 -9 -3203
l0 -3199 2643 0 c2042 0 2646 3 2655 12 9 9 12 191 12 757 0 411 -4 752 -8
759 -6 9 -38 12 -123 10 l-114 -3 -3 -629 c-1 -444 -5 -633 -13 -643 -10 -11
-412 -13 -2395 -13 -2346 0 -2383 0 -2394 19 -16 30 -14 5893 2 5909 9 9 147
12 560 12 l548 0 0 550 c0 533 1 550 19 560 13 7 600 10 1826 10 1226 0 1813
-3 1826 -10 19 -10 19 -30 19 -839 0 -751 -2 -830 -16 -842 -10 -8 -71 -18
-160 -26 -78 -6 -152 -16 -163 -22 -11 -6 -32 -11 -48 -11 -33 0 -96 -19 -245
-76 -43 -16 -226 -105 -263 -127 -147 -89 -241 -163 -366 -288 -78 -79 -239
-276 -239 -293 0 -2 -20 -35 -45 -73 -25 -37 -45 -72 -45 -77 0 -4 -20 -50
-45 -102 -25 -51 -45 -100 -45 -109 0 -9 -6 -29 -14 -43 -22 -43 -65 -220 -76
-312 -24 -198 -28 -271 -20 -360 18 -195 36 -300 66 -383 8 -20 14 -46 14 -57
0 -11 6 -34 14 -52 8 -18 22 -53 31 -78 10 -25 30 -71 46 -103 16 -31 29 -62
29 -67 0 -5 12 -26 26 -47 14 -21 30 -47 35 -58 13 -30 27 -50 105 -155 67
-90 271 -302 311 -323 10 -6 38 -27 63 -47 25 -20 52 -40 60 -43 8 -4 29 -16
45 -27 17 -11 37 -23 45 -27 8 -4 34 -20 56 -35 23 -15 47 -28 53 -28 6 0 37
-13 68 -30 31 -16 63 -30 72 -30 9 0 25 -7 35 -15 11 -8 27 -15 37 -15 9 0 30
-7 45 -15 16 -8 40 -15 54 -15 14 -1 36 -7 50 -15 14 -8 39 -14 55 -15 17 0
53 -7 80 -16 74 -23 579 -24 645 0 25 9 54 16 66 16 11 0 40 6 65 14 24 7 71
22 104 31 33 10 74 23 90 30 44 18 168 75 185 86 8 5 29 15 45 23 17 7 54 30
84 50 29 20 55 36 58 36 7 0 118 87 132 104 7 9 21 16 30 16 17 0 591 -569
591 -586 0 -5 -58 -68 -130 -139 -71 -71 -130 -136 -130 -143 0 -18 1469
-1485 1547 -1545 34 -26 68 -47 76 -47 8 0 20 -7 27 -15 7 -8 23 -15 36 -15
13 0 41 -7 63 -16 29 -11 63 -14 128 -12 82 4 112 11 188 43 17 7 37 16 45 19
98 42 218 192 257 321 5 17 15 29 21 27 9 -1 12 29 12 111 0 101 -2 113 -20
125 -11 7 -20 23 -20 37 0 14 -15 53 -32 87 -28 53 -146 176 -810 840 -427
428 -780 778 -785 778 -5 0 -67 -58 -138 -130 -71 -71 -135 -130 -141 -130
-19 0 -584 570 -584 589 0 10 12 28 26 42 43 40 172 241 222 344 34 71 98 237
108 280 3 11 11 43 19 70 42 149 50 227 49 460 0 149 -4 242 -12 265 -6 19
-16 62 -21 95 -15 92 -29 140 -77 268 -30 78 -96 219 -129 275 -107 180 -286
386 -440 506 -33 26 -67 52 -75 60 -8 7 -22 16 -30 20 -17 8 -38 20 -97 59
-42 27 -142 79 -198 102 -16 7 -46 20 -65 28 -63 26 -124 46 -210 67 -106 26
-137 33 -170 38 -19 2 -41 9 -47 14 -10 8 -13 215 -13 973 0 530 -3 970 -6
979 -6 15 -196 16 -2060 16 l-2055 0 -585 -582z m520 100 c3 -13 6 -157 6
-320 0 -296 0 -297 -22 -312 -33 -23 -619 -24 -638 -1 -10 12 39 66 306 335
176 176 324 320 330 320 7 0 14 -10 18 -22z m4186 -1754 c47 -8 108 -22 136
-30 28 -8 58 -14 67 -14 9 0 31 -6 49 -14 18 -8 53 -22 78 -31 25 -9 72 -30
105 -45 33 -15 67 -31 75 -34 8 -4 24 -12 35 -19 232 -143 394 -295 517 -485
82 -126 82 -126 118 -200 40 -83 50 -110 116 -323 8 -26 14 -66 14 -90 0 -24
7 -71 15 -104 8 -33 14 -103 14 -155 0 -52 -6 -122 -14 -155 -8 -33 -15 -79
-15 -102 0 -23 -5 -54 -11 -70 -7 -15 -15 -46 -19 -68 -4 -22 -18 -65 -30 -95
-12 -30 -24 -64 -27 -75 -6 -23 -72 -159 -106 -221 -65 -117 -233 -316 -339
-402 -70 -56 -162 -123 -189 -136 -8 -3 -27 -15 -44 -26 -16 -11 -37 -23 -45
-26 -8 -3 -42 -19 -75 -34 -33 -15 -80 -36 -105 -45 -25 -9 -60 -23 -78 -31
-18 -8 -46 -14 -63 -14 -17 0 -40 -5 -52 -12 -22 -12 -65 -19 -252 -38 -122
-12 -378 9 -448 38 -16 7 -41 12 -57 12 -16 0 -44 6 -62 14 -18 8 -53 22 -78
31 -205 79 -413 215 -560 365 -70 71 -196 227 -207 257 -4 10 -17 32 -28 49
-24 35 -83 156 -109 224 -10 25 -24 60 -32 78 -8 18 -14 44 -14 57 0 13 -6 39
-14 57 -53 125 -55 562 -4 728 6 19 15 51 19 70 10 48 32 111 68 193 33 74 61
129 82 162 10 17 22 37 26 45 4 8 39 58 79 110 108 142 249 273 404 375 76 50
84 55 125 71 6 2 17 8 25 12 8 5 32 16 53 26 112 49 155 64 212 76 22 5 53 13
68 19 16 6 43 11 60 11 18 1 55 7 82 15 72 20 327 19 435 -1z m2703 -4091
c445 -446 674 -682 687 -709 28 -57 28 -172 -1 -232 -22 -44 -83 -112 -102
-112 -6 0 -18 -7 -28 -16 -28 -25 -175 -21 -230 8 -49 25 -1369 1336 -1369
1359 0 16 349 369 365 369 5 0 310 -300 678 -667z"/>
<path d="M4890 5228 c-14 -5 -50 -14 -80 -18 -52 -7 -70 -12 -165 -48 -102
-38 -251 -109 -292 -138 -17 -13 -36 -24 -42 -24 -19 0 -193 -125 -272 -196
-134 -120 -162 -150 -154 -170 10 -26 150 -154 169 -154 9 0 34 17 55 38 78
74 98 90 185 156 103 76 130 84 115 34 -15 -54 -11 -289 6 -318 8 -14 14 -35
15 -47 1 -57 107 -224 189 -297 19 -17 39 -36 45 -42 6 -5 31 -21 56 -34 25
-14 52 -29 60 -35 22 -16 94 -41 178 -61 80 -19 227 -15 292 7 19 6 55 19 80
27 168 58 330 217 398 392 22 57 52 211 52 270 0 30 -7 77 -15 104 -22 73 -10
83 51 44 27 -18 51 -35 54 -38 3 -3 28 -23 55 -44 28 -22 78 -66 112 -98 34
-32 67 -58 73 -58 25 0 180 139 180 161 0 16 -101 117 -192 193 -127 105 -427
286 -474 286 -6 0 -17 7 -24 15 -7 8 -22 15 -34 15 -12 0 -31 7 -42 15 -10 8
-29 15 -40 15 -12 0 -35 7 -50 15 -16 8 -45 15 -64 15 -19 0 -53 7 -75 15 -48
17 -365 20 -405 3z m254 -249 c79 -15 129 -35 191 -78 58 -40 60 -42 101 -101
60 -87 74 -132 74 -246 0 -104 -5 -126 -50 -212 -20 -39 -116 -140 -145 -153
-11 -5 -27 -13 -35 -18 -56 -33 -96 -41 -195 -41 -99 0 -139 8 -195 41 -8 5
-25 14 -38 19 -40 17 -117 105 -150 171 -59 120 -61 257 -6 375 25 55 114 159
148 175 12 6 41 21 66 34 25 13 59 25 75 25 17 1 41 6 55 10 35 11 37 11 104
-1z"/>
<path d="M1135 6349 c-8 -12 -10 -227 -3 -235 4 -3 1548 -6 1936 -4 10 0 12
28 10 123 l-3 122 -967 3 c-689 1 -969 -1 -973 -9z"/>
<path d="M1129 5778 c-2 -13 -3 -71 -1 -130 l3 -108 690 0 690 0 -3 128 -3
127 -686 3 -687 2 -3 -22z"/>
<path d="M2093 4952 c-847 -2 -963 -4 -964 -17 0 -20 0 -212 0 -225 1 -7 333
-10 976 -10 l975 0 0 119 c0 83 -4 121 -12 127 -7 5 -439 8 -975 6z"/>
<path d="M1134 4389 c-9 -16 -7 -240 3 -250 5 -5 314 -8 689 -7 l679 3 0 130
0 130 -682 3 c-488 1 -684 -1 -689 -9z"/>
<path d="M1129 3528 c-2 -13 -3 -71 -1 -131 l3 -107 972 2 972 3 0 125 0 125
-971 3 -972 2 -3 -22z"/>
<path d="M1135 2980 c-10 -16 -8 -241 2 -251 5 -5 229 -8 554 -7 l544 3 0 130
0 130 -547 3 c-361 1 -549 -1 -553 -8z"/>
</g>
</svg>
